<svg aria-hidden="true" xmlns="http://www.w3.org/2000/svg" xmlns:xlink="http://www.w3.org/1999/xlink"><symbol viewBox="0 0 24 24" id="discord" xmlns="http://www.w3.org/2000/svg">
<path d="M9.88806 10.068C9.20406 10.068 8.66406 10.668 8.66406 11.4C8.66406 12.132 9.21606 12.732 9.88806 12.732C10.5721 12.732 11.1121 12.132 11.1121 11.4C11.1241 10.668 10.5721 10.068 9.88806 10.068ZM14.2681 10.068C13.5841 10.068 13.0441 10.668 13.0441 11.4C13.0441 12.132 13.5961 12.732 14.2681 12.732C14.9521 12.732 15.4921 12.132 15.4921 11.4C15.4921 10.668 14.9521 10.068 14.2681 10.068Z"/>
<path d="M20.1001 0H4.02006C2.66406 0 1.56006 1.104 1.56006 2.472V18.696C1.56006 20.064 2.66406 21.168 4.02006 21.168H17.6281L16.9921 18.948L18.5281 20.376L19.9801 21.72L22.5601 24V2.472C22.5601 1.104 21.4561 0 20.1001 0ZM15.4681 15.672C15.4681 15.672 15.0361 15.156 14.6761 14.7C16.2481 14.256 16.8481 13.272 16.8481 13.272C16.3561 13.596 15.8881 13.824 15.4681 13.98C14.8681 14.232 14.2921 14.4 13.7281 14.496C12.5761 14.712 11.5201 14.652 10.6201 14.484C9.93606 14.352 9.34806 14.16 8.85606 13.968C8.58006 13.86 8.28006 13.728 7.98006 13.56C7.94406 13.536 7.90806 13.524 7.87206 13.5C7.84806 13.488 7.83606 13.476 7.82406 13.464C7.60806 13.344 7.48806 13.26 7.48806 13.26C7.48806 13.26 8.06406 14.22 9.58806 14.676C9.22806 15.132 8.78406 15.672 8.78406 15.672C6.13206 15.588 5.12406 13.848 5.12406 13.848C5.12406 9.984 6.85206 6.852 6.85206 6.852C8.58006 5.556 10.2241 5.592 10.2241 5.592L10.3441 5.736C8.18406 6.36 7.18806 7.308 7.18806 7.308C7.18806 7.308 7.45206 7.164 7.89606 6.96C9.18006 6.396 10.2001 6.24 10.6201 6.204C10.6921 6.192 10.7521 6.18 10.8241 6.18C11.5561 6.084 12.3841 6.06 13.2481 6.156C14.3881 6.288 15.6121 6.624 16.8601 7.308C16.8601 7.308 15.9121 6.408 13.8721 5.784L14.0401 5.592C14.0401 5.592 15.6841 5.556 17.4121 6.852C17.4121 6.852 19.1401 9.984 19.1401 13.848C19.1401 13.848 18.1201 15.588 15.4681 15.672Z"/>
</symbol><symbol viewBox="0 0 20 20" id="edit" xmlns="http://www.w3.org/2000/svg">
<path d="M9.16675 3.33332H5.66675C4.26662 3.33332 3.56655 3.33332 3.03177 3.6058C2.56137 3.84549 2.17892 4.22794 1.93923 4.69834C1.66675 5.23312 1.66675 5.93319 1.66675 7.33332V14.3333C1.66675 15.7335 1.66675 16.4335 1.93923 16.9683C2.17892 17.4387 2.56137 17.8212 3.03177 18.0608C3.56655 18.3333 4.26662 18.3333 5.66675 18.3333H12.6667C14.0669 18.3333 14.7669 18.3333 15.3017 18.0608C15.7721 17.8212 16.1546 17.4387 16.3943 16.9683C16.6667 16.4335 16.6667 15.7335 16.6667 14.3333V10.8333M6.66673 13.3333H8.06218C8.46983 13.3333 8.67366 13.3333 8.86547 13.2873C9.03553 13.2464 9.1981 13.1791 9.34722 13.0877C9.51542 12.9847 9.65954 12.8405 9.9478 12.5523L17.9167 4.58332C18.6071 3.89296 18.6071 2.77368 17.9167 2.08332C17.2264 1.39296 16.1071 1.39296 15.4167 2.08332L7.44778 10.0523C7.15952 10.3405 7.0154 10.4847 6.91233 10.6528C6.82094 10.802 6.7536 10.9645 6.71278 11.1346C6.66673 11.3264 6.66673 11.5302 6.66673 11.9379V13.3333Z" stroke-width="1.66667" stroke-linecap="round" stroke-linejoin="round"/>
</symbol><symbol viewBox="0 0 20 18" id="eye-off" xmlns="http://www.w3.org/2000/svg">
<path d="M8.95245 3.2436C9.29113 3.19353 9.64051 3.16667 10.0003 3.16667C14.2545 3.16667 17.0461 6.9207 17.9839 8.40569C18.0974 8.58542 18.1542 8.67528 18.1859 8.81389C18.2098 8.91799 18.2098 9.08222 18.1859 9.18631C18.1541 9.32492 18.097 9.41538 17.9827 9.59631C17.7328 9.99179 17.3518 10.5476 16.8471 11.1504M5.6036 4.59586C3.80187 5.81808 2.57871 7.51615 2.01759 8.4044C1.90357 8.58489 1.84656 8.67514 1.81478 8.81373C1.79091 8.91783 1.7909 9.08203 1.81476 9.18613C1.84652 9.32473 1.90328 9.41459 2.01678 9.59432C2.95462 11.0793 5.74618 14.8333 10.0003 14.8333C11.7157 14.8333 13.1932 14.223 14.4073 13.3972M2.50035 1.5L17.5003 16.5M8.23258 7.23223C7.78017 7.68464 7.50035 8.30964 7.50035 9C7.50035 10.3807 8.61963 11.5 10.0003 11.5C10.6907 11.5 11.3157 11.2202 11.7681 10.7678" stroke-width="1.66667" stroke-linecap="round" stroke-linejoin="round"/>
</symbol><symbol viewBox="0 0 24 24" id="facebook" xmlns="http://www.w3.org/2000/svg">
<path d="M24 12C24 5.37258 18.6274 0 12 0C5.37258 0 0 5.37258 0 12C0 17.9895 4.3882 22.954 10.125 23.8542V15.4688H7.07812V12H10.125V9.35625C10.125 6.34875 11.9166 4.6875 14.6576 4.6875C15.9701 4.6875 17.3438 4.92188 17.3438 4.92188V7.875H15.8306C14.34 7.875 13.875 8.80008 13.875 9.75V12H17.2031L16.6711 15.4688H13.875V23.8542C19.6118 22.954 24 17.9895 24 12Z"/>
</symbol><symbol viewBox="0 0 24 24" id="instagram" xmlns="http://www.w3.org/2000/svg">
<path d="M12 2.16094C15.2063 2.16094 15.5859 2.175 16.8469 2.23125C18.0188 2.28281 18.6516 2.47969 19.0734 2.64375C19.6313 2.85938 20.0344 3.12188 20.4516 3.53906C20.8734 3.96094 21.1313 4.35938 21.3469 4.91719C21.5109 5.33906 21.7078 5.97656 21.7594 7.14375C21.8156 8.40937 21.8297 8.78906 21.8297 11.9906C21.8297 15.1969 21.8156 15.5766 21.7594 16.8375C21.7078 18.0094 21.5109 18.6422 21.3469 19.0641C21.1313 19.6219 20.8687 20.025 20.4516 20.4422C20.0297 20.8641 19.6313 21.1219 19.0734 21.3375C18.6516 21.5016 18.0141 21.6984 16.8469 21.75C15.5813 21.8062 15.2016 21.8203 12 21.8203C8.79375 21.8203 8.41406 21.8062 7.15313 21.75C5.98125 21.6984 5.34844 21.5016 4.92656 21.3375C4.36875 21.1219 3.96563 20.8594 3.54844 20.4422C3.12656 20.0203 2.86875 19.6219 2.65313 19.0641C2.48906 18.6422 2.29219 18.0047 2.24063 16.8375C2.18438 15.5719 2.17031 15.1922 2.17031 11.9906C2.17031 8.78438 2.18438 8.40469 2.24063 7.14375C2.29219 5.97187 2.48906 5.33906 2.65313 4.91719C2.86875 4.35938 3.13125 3.95625 3.54844 3.53906C3.97031 3.11719 4.36875 2.85938 4.92656 2.64375C5.34844 2.47969 5.98594 2.28281 7.15313 2.23125C8.41406 2.175 8.79375 2.16094 12 2.16094ZM12 0C8.74219 0 8.33438 0.0140625 7.05469 0.0703125C5.77969 0.126563 4.90313 0.332812 4.14375 0.628125C3.35156 0.9375 2.68125 1.34531 2.01563 2.01562C1.34531 2.68125 0.9375 3.35156 0.628125 4.13906C0.332812 4.90313 0.126563 5.775 0.0703125 7.05C0.0140625 8.33437 0 8.74219 0 12C0 15.2578 0.0140625 15.6656 0.0703125 16.9453C0.126563 18.2203 0.332812 19.0969 0.628125 19.8563C0.9375 20.6484 1.34531 21.3188 2.01563 21.9844C2.68125 22.65 3.35156 23.0625 4.13906 23.3672C4.90313 23.6625 5.775 23.8687 7.05 23.925C8.32969 23.9812 8.7375 23.9953 11.9953 23.9953C15.2531 23.9953 15.6609 23.9812 16.9406 23.925C18.2156 23.8687 19.0922 23.6625 19.8516 23.3672C20.6391 23.0625 21.3094 22.65 21.975 21.9844C22.6406 21.3188 23.0531 20.6484 23.3578 19.8609C23.6531 19.0969 23.8594 18.225 23.9156 16.95C23.9719 15.6703 23.9859 15.2625 23.9859 12.0047C23.9859 8.74688 23.9719 8.33906 23.9156 7.05938C23.8594 5.78438 23.6531 4.90781 23.3578 4.14844C23.0625 3.35156 22.6547 2.68125 21.9844 2.01562C21.3188 1.35 20.6484 0.9375 19.8609 0.632812C19.0969 0.3375 18.225 0.13125 16.95 0.075C15.6656 0.0140625 15.2578 0 12 0Z"/>
<path d="M12 5.83594C8.59688 5.83594 5.83594 8.59688 5.83594 12C5.83594 15.4031 8.59688 18.1641 12 18.1641C15.4031 18.1641 18.1641 15.4031 18.1641 12C18.1641 8.59688 15.4031 5.83594 12 5.83594ZM12 15.9984C9.79219 15.9984 8.00156 14.2078 8.00156 12C8.00156 9.79219 9.79219 8.00156 12 8.00156C14.2078 8.00156 15.9984 9.79219 15.9984 12C15.9984 14.2078 14.2078 15.9984 12 15.9984Z"/>
<path d="M19.8469 5.59214C19.8469 6.38902 19.2 7.0312 18.4078 7.0312C17.6109 7.0312 16.9688 6.38433 16.9688 5.59214C16.9688 4.79526 17.6156 4.15308 18.4078 4.15308C19.2 4.15308 19.8469 4.79995 19.8469 5.59214Z"/>
</symbol><symbol viewBox="0 0 16 12" id="letter" xmlns="http://www.w3.org/2000/svg">
<path d="M1.33325 3.86675C1.33325 2.74664 1.33325 2.18659 1.55124 1.75877C1.74299 1.38244 2.04895 1.07648 2.42527 0.884735C2.85309 0.666748 3.41315 0.666748 4.53325 0.666748H11.4666C12.5867 0.666748 13.1467 0.666748 13.5746 0.884735C13.9509 1.07648 14.2569 1.38244 14.4486 1.75877C14.6666 2.18659 14.6666 2.74664 14.6666 3.86675V8.13341C14.6666 9.25352 14.6666 9.81357 14.4486 10.2414C14.2569 10.6177 13.9509 10.9237 13.5746 11.1154C13.1467 11.3334 12.5867 11.3334 11.4666 11.3334H4.53325C3.41315 11.3334 2.85309 11.3334 2.42527 11.1154C2.04895 10.9237 1.74299 10.6177 1.55124 10.2414C1.33325 9.81357 1.33325 9.25352 1.33325 8.13341V3.86675Z"/>
<path d="M1.33325 2.66675L6.77653 6.47704C7.21731 6.78559 7.4377 6.93986 7.67743 6.99962C7.88918 7.0524 8.11066 7.0524 8.32241 6.99962C8.56213 6.93986 8.78252 6.78559 9.2233 6.47704L14.6666 2.66675M4.53325 11.3334H11.4666C12.5867 11.3334 13.1467 11.3334 13.5746 11.1154C13.9509 10.9237 14.2569 10.6177 14.4486 10.2414C14.6666 9.81357 14.6666 9.25352 14.6666 8.13341V3.86675C14.6666 2.74664 14.6666 2.18659 14.4486 1.75877C14.2569 1.38244 13.9509 1.07648 13.5746 0.884735C13.1467 0.666748 12.5867 0.666748 11.4666 0.666748H4.53325C3.41315 0.666748 2.85309 0.666748 2.42527 0.884735C2.04895 1.07648 1.74299 1.38244 1.55124 1.75877C1.33325 2.18659 1.33325 2.74664 1.33325 3.86675V8.13341C1.33325 9.25352 1.33325 9.81357 1.55124 10.2414C1.74299 10.6177 2.04895 10.9237 2.42527 11.1154C2.85309 11.3334 3.41315 11.3334 4.53325 11.3334Z" stroke-width="1.33333" stroke-linecap="round" stroke-linejoin="round"/>
</symbol><symbol viewBox="0 0 16 16" id="plus" xmlns="http://www.w3.org/2000/svg">
<path d="M8 1V15M1 8H15" stroke-width="2" stroke-linecap="round" stroke-linejoin="round"/>
</symbol><symbol viewBox="0 0 18 18" id="search" xmlns="http://www.w3.org/2000/svg">
<path d="M16.5 16.5L13.5834 13.5833M15.6667 8.58333C15.6667 12.4954 12.4954 15.6667 8.58333 15.6667C4.67132 15.6667 1.5 12.4954 1.5 8.58333C1.5 4.67132 4.67132 1.5 8.58333 1.5C12.4954 1.5 15.6667 4.67132 15.6667 8.58333Z" stroke-width="1.66667" stroke-linecap="round" stroke-linejoin="round"/>
</symbol><symbol viewBox="0 0 22 22" id="settings" xmlns="http://www.w3.org/2000/svg">
<path d="M11 14C12.6569 14 14 12.6569 14 11C14 9.34315 12.6569 8 11 8C9.34315 8 8 9.34315 8 11C8 12.6569 9.34315 14 11 14Z" stroke-width="2" stroke-linecap="round" stroke-linejoin="round"/>
<path d="M17.7273 13.7273C17.6063 14.0015 17.5702 14.3056 17.6236 14.6005C17.6771 14.8954 17.8177 15.1676 18.0273 15.3818L18.0818 15.4364C18.2509 15.6052 18.385 15.8057 18.4765 16.0265C18.568 16.2472 18.6151 16.4838 18.6151 16.7227C18.6151 16.9617 18.568 17.1983 18.4765 17.419C18.385 17.6397 18.2509 17.8402 18.0818 18.0091C17.913 18.1781 17.7124 18.3122 17.4917 18.4037C17.271 18.4952 17.0344 18.5423 16.7955 18.5423C16.5565 18.5423 16.3199 18.4952 16.0992 18.4037C15.8785 18.3122 15.678 18.1781 15.5091 18.0091L15.4545 17.9545C15.2403 17.745 14.9682 17.6044 14.6733 17.5509C14.3784 17.4974 14.0742 17.5335 13.8 17.6545C13.5311 17.7698 13.3018 17.9611 13.1403 18.205C12.9788 18.4489 12.8921 18.7347 12.8909 19.0273V19.1818C12.8909 19.664 12.6994 20.1265 12.3584 20.4675C12.0174 20.8084 11.5549 21 11.0727 21C10.5905 21 10.1281 20.8084 9.78708 20.4675C9.4461 20.1265 9.25455 19.664 9.25455 19.1818V19.1C9.24751 18.7991 9.15011 18.5073 8.97501 18.2625C8.79991 18.0176 8.55521 17.8312 8.27273 17.7273C7.99853 17.6063 7.69437 17.5702 7.39947 17.6236C7.10456 17.6771 6.83244 17.8177 6.61818 18.0273L6.56364 18.0818C6.39478 18.2509 6.19425 18.385 5.97353 18.4765C5.7528 18.568 5.51621 18.6151 5.27727 18.6151C5.03834 18.6151 4.80174 18.568 4.58102 18.4765C4.36029 18.385 4.15977 18.2509 3.99091 18.0818C3.82186 17.913 3.68775 17.7124 3.59626 17.4917C3.50476 17.271 3.45766 17.0344 3.45766 16.7955C3.45766 16.5565 3.50476 16.3199 3.59626 16.0992C3.68775 15.8785 3.82186 15.678 3.99091 15.5091L4.04545 15.4545C4.25503 15.2403 4.39562 14.9682 4.4491 14.6733C4.50257 14.3784 4.46647 14.0742 4.34545 13.8C4.23022 13.5311 4.03887 13.3018 3.79497 13.1403C3.55107 12.9788 3.26526 12.8921 2.97273 12.8909H2.81818C2.33597 12.8909 1.87351 12.6994 1.53253 12.3584C1.19156 12.0174 1 11.5549 1 11.0727C1 10.5905 1.19156 10.1281 1.53253 9.78708C1.87351 9.4461 2.33597 9.25455 2.81818 9.25455H2.9C3.2009 9.24751 3.49273 9.15011 3.73754 8.97501C3.98236 8.79991 4.16883 8.55521 4.27273 8.27273C4.39374 7.99853 4.42984 7.69437 4.37637 7.39947C4.3229 7.10456 4.18231 6.83244 3.97273 6.61818L3.91818 6.56364C3.74913 6.39478 3.61503 6.19425 3.52353 5.97353C3.43203 5.7528 3.38493 5.51621 3.38493 5.27727C3.38493 5.03834 3.43203 4.80174 3.52353 4.58102C3.61503 4.36029 3.74913 4.15977 3.91818 3.99091C4.08704 3.82186 4.28757 3.68775 4.50829 3.59626C4.72901 3.50476 4.96561 3.45766 5.20455 3.45766C5.44348 3.45766 5.68008 3.50476 5.9008 3.59626C6.12152 3.68775 6.32205 3.82186 6.49091 3.99091L6.54545 4.04545C6.75971 4.25503 7.03183 4.39562 7.32674 4.4491C7.62164 4.50257 7.9258 4.46647 8.2 4.34545H8.27273C8.54161 4.23022 8.77093 4.03887 8.93245 3.79497C9.09397 3.55107 9.18065 3.26526 9.18182 2.97273V2.81818C9.18182 2.33597 9.37338 1.87351 9.71435 1.53253C10.0553 1.19156 10.5178 1 11 1C11.4822 1 11.9447 1.19156 12.2856 1.53253C12.6266 1.87351 12.8182 2.33597 12.8182 2.81818V2.9C12.8193 3.19253 12.906 3.47834 13.0676 3.72224C13.2291 3.96614 13.4584 4.15749 13.7273 4.27273C14.0015 4.39374 14.3056 4.42984 14.6005 4.37637C14.8954 4.3229 15.1676 4.18231 15.3818 3.97273L15.4364 3.91818C15.6052 3.74913 15.8057 3.61503 16.0265 3.52353C16.2472 3.43203 16.4838 3.38493 16.7227 3.38493C16.9617 3.38493 17.1983 3.43203 17.419 3.52353C17.6397 3.61503 17.8402 3.74913 18.0091 3.91818C18.1781 4.08704 18.3122 4.28757 18.4037 4.50829C18.4952 4.72901 18.5423 4.96561 18.5423 5.20455C18.5423 5.44348 18.4952 5.68008 18.4037 5.9008C18.3122 6.12152 18.1781 6.32205 18.0091 6.49091L17.9545 6.54545C17.745 6.75971 17.6044 7.03183 17.5509 7.32674C17.4974 7.62164 17.5335 7.9258 17.6545 8.2V8.27273C17.7698 8.54161 17.9611 8.77093 18.205 8.93245C18.4489 9.09397 18.7347 9.18065 19.0273 9.18182H19.1818C19.664 9.18182 20.1265 9.37338 20.4675 9.71435C20.8084 10.0553 21 10.5178 21 11C21 11.4822 20.8084 11.9447 20.4675 12.2856C20.1265 12.6266 19.664 12.8182 19.1818 12.8182H19.1C18.8075 12.8193 18.5217 12.906 18.2778 13.0676C18.0339 13.2291 17.8425 13.4584 17.7273 13.7273Z" stroke-width="2" stroke-linecap="round" stroke-linejoin="round"/>
</symbol><symbol viewBox="0 0 24 20" id="twitter" xmlns="http://www.w3.org/2000/svg">
<path d="M7.55016 19.75C16.6045 19.75 21.5583 12.2468 21.5583 5.74192C21.5583 5.53098 21.5536 5.31536 21.5442 5.10442C22.5079 4.40752 23.3395 3.54432 24 2.55536C23.1025 2.95466 22.1496 3.21544 21.1739 3.3288C22.2013 2.71297 22.9705 1.74553 23.3391 0.605828C22.3726 1.17862 21.3156 1.58267 20.2134 1.80067C19.4708 1.01162 18.489 0.489177 17.4197 0.314112C16.3504 0.139047 15.2532 0.321111 14.2977 0.832157C13.3423 1.3432 12.5818 2.15477 12.1338 3.14137C11.6859 4.12798 11.5754 5.23468 11.8195 6.29036C9.86249 6.19215 7.94794 5.68377 6.19998 4.79816C4.45203 3.91255 2.90969 2.6695 1.67297 1.14958C1.0444 2.2333 0.852057 3.51571 1.13503 4.73615C1.418 5.9566 2.15506 7.02351 3.19641 7.72005C2.41463 7.69523 1.64998 7.48474 0.965625 7.10598V7.16692C0.964925 8.30421 1.3581 9.40665 2.07831 10.2868C2.79852 11.167 3.80132 11.7706 4.91625 11.995C4.19206 12.1932 3.43198 12.2221 2.69484 12.0794C3.00945 13.0575 3.62157 13.913 4.44577 14.5264C5.26997 15.1398 6.26512 15.4807 7.29234 15.5013C5.54842 16.8712 3.39417 17.6142 1.17656 17.6107C0.783287 17.6101 0.390399 17.586 0 17.5385C2.25286 18.9838 4.87353 19.7514 7.55016 19.75Z"/>
</symbol><symbol viewBox="0 0 20 18" id="upload" xmlns="http://www.w3.org/2000/svg">
<path d="M6.6665 12.3333L9.99984 9M9.99984 9L13.3332 12.3333M9.99984 9V16.5M16.6665 12.9524C17.6844 12.1117 18.3332 10.8399 18.3332 9.41667C18.3332 6.88536 16.2811 4.83333 13.7498 4.83333C13.5677 4.83333 13.3974 4.73833 13.3049 4.58145C12.2182 2.73736 10.2119 1.5 7.9165 1.5C4.46472 1.5 1.6665 4.29822 1.6665 7.75C1.6665 9.47175 2.36271 11.0309 3.48896 12.1613" stroke-width="1.66667" stroke-linecap="round" stroke-linejoin="round"/>
</symbol></svg>