<svg width="152" height="123" viewBox="0 0 152 123" fill="none" xmlns="http://www.w3.org/2000/svg">
<circle cx="76" cy="52" r="52" fill="#101828"/>
<g filter="url(#filter0_dd_1_13035)">
<path d="M51.4349 64.5036C58.8047 70.8769 70.2535 65.6416 70.2535 55.8983L70.2535 50.1273L70.2822 49.0827C70.6763 34.7377 84.993 24.9829 98.4876 29.8647L65.9971 14.2714C64.4614 13.5344 62.795 13.1085 61.094 13.0184C53.7055 12.6269 47.5 18.5123 47.5 25.9112L47.5 55.8983C47.5 59.202 48.9361 62.3425 51.4349 64.5036Z" fill="url(#paint0_linear_1_13035)"/>
<path d="M100.862 31.4964C93.4924 25.1231 82.0436 30.3584 82.0436 40.1017L82.0436 45.8727L82.0149 46.9173C81.6208 61.2623 67.3041 71.0171 53.8096 66.1353L86.3 81.7286C87.8357 82.4656 89.5021 82.8915 91.2032 82.9816C98.5917 83.3731 104.797 77.4877 104.797 70.0888L104.797 40.1017C104.797 36.798 103.361 33.6575 100.862 31.4964Z" fill="url(#paint1_linear_1_13035)"/>
</g>
<circle cx="21" cy="19" r="5" fill="#1D2939"/>
<circle cx="18" cy="109" r="7" fill="#1D2939"/>
<circle cx="145" cy="35" r="7" fill="#1D2939"/>
<circle cx="134" cy="8" r="4" fill="#1D2939"/>
<g filter="url(#filter1_b_1_13035)">
<rect x="52" y="62" width="48" height="48" rx="24" fill="#344054" fill-opacity="0.4"/>
<path d="M70 91.0001C70 91.3514 70 91.527 70.0157 91.6797C70.1457 92.9475 71.0626 93.9947 72.3021 94.2912C72.4513 94.3269 72.6255 94.3501 72.9737 94.3966L79.5656 95.2755C81.442 95.5257 82.3803 95.6508 83.1084 95.3612C83.7478 95.107 84.2803 94.6408 84.6168 94.0407C85 93.3572 85 92.4106 85 90.5176V81.4826C85 79.5895 85 78.643 84.6168 77.9595C84.2803 77.3594 83.7478 76.8931 83.1084 76.6389C82.3803 76.3494 81.442 76.4745 79.5656 76.7247L72.9737 77.6036C72.6255 77.65 72.4514 77.6732 72.3021 77.7089C71.0626 78.0054 70.1457 79.0527 70.0157 80.3204C70 80.4731 70 80.6488 70 81.0001M76 82.0001L80 86.0001M80 86.0001L76 90.0001M80 86.0001H67" stroke="white" stroke-width="2" stroke-linecap="round" stroke-linejoin="round"/>
</g>
<defs>
<filter id="filter0_dd_1_13035" x="0" y="13" width="152" height="110" filterUnits="userSpaceOnUse" color-interpolation-filters="sRGB">
<feFlood flood-opacity="0" result="BackgroundImageFix"/>
<feColorMatrix in="SourceAlpha" type="matrix" values="0 0 0 0 0 0 0 0 0 0 0 0 0 0 0 0 0 0 127 0" result="hardAlpha"/>
<feMorphology radius="4" operator="erode" in="SourceAlpha" result="effect1_dropShadow_1_13035"/>
<feOffset dy="8"/>
<feGaussianBlur stdDeviation="4"/>
<feColorMatrix type="matrix" values="0 0 0 0 0.0627451 0 0 0 0 0.0941176 0 0 0 0 0.156863 0 0 0 0.03 0"/>
<feBlend mode="normal" in2="BackgroundImageFix" result="effect1_dropShadow_1_13035"/>
<feColorMatrix in="SourceAlpha" type="matrix" values="0 0 0 0 0 0 0 0 0 0 0 0 0 0 0 0 0 0 127 0" result="hardAlpha"/>
<feMorphology radius="4" operator="erode" in="SourceAlpha" result="effect2_dropShadow_1_13035"/>
<feOffset dy="20"/>
<feGaussianBlur stdDeviation="12"/>
<feColorMatrix type="matrix" values="0 0 0 0 0.0627451 0 0 0 0 0.0941176 0 0 0 0 0.156863 0 0 0 0.08 0"/>
<feBlend mode="normal" in2="effect1_dropShadow_1_13035" result="effect2_dropShadow_1_13035"/>
<feBlend mode="normal" in="SourceGraphic" in2="effect2_dropShadow_1_13035" result="shape"/>
</filter>
<filter id="filter1_b_1_13035" x="44" y="54" width="64" height="64" filterUnits="userSpaceOnUse" color-interpolation-filters="sRGB">
<feFlood flood-opacity="0" result="BackgroundImageFix"/>
<feGaussianBlur in="BackgroundImageFix" stdDeviation="4"/>
<feComposite in2="SourceAlpha" operator="in" result="effect1_backgroundBlur_1_13035"/>
<feBlend mode="normal" in="SourceGraphic" in2="effect1_backgroundBlur_1_13035" result="shape"/>
</filter>
<linearGradient id="paint0_linear_1_13035" x1="59.5859" y1="12.2981" x2="59.5859" y2="65.2463" gradientUnits="userSpaceOnUse">
<stop stop-color="#52EDD1"/>
<stop offset="1" stop-color="#0D7685"/>
</linearGradient>
<linearGradient id="paint1_linear_1_13035" x1="92.7112" y1="83.7019" x2="92.7112" y2="30.7537" gradientUnits="userSpaceOnUse">
<stop stop-color="#52EDD1"/>
<stop offset="1" stop-color="#0D7685"/>
</linearGradient>
</defs>
</svg>
