<svg width="402" height="402" viewBox="0 0 402 402" fill="none" xmlns="http://www.w3.org/2000/svg">
<circle cx="201.5" cy="200.5" r="115.5" fill="#3F3F46"/>
<ellipse cx="80" cy="130.5" rx="11" ry="10.5" fill="#51525C"/>
<circle cx="74" cy="323" r="15" fill="#51525C"/>
<circle cx="345" cy="165" r="15" fill="#51525C"/>
<circle cx="321.5" cy="107.5" r="8.5" fill="#51525C"/>
<circle cx="201" cy="201" r="116.548" stroke="#353945" stroke-width="0.526178"/>
<circle opacity="0.5" cx="201" cy="201" r="158.643" stroke="#353945" stroke-width="0.526178"/>
<circle opacity="0.5" cx="201" cy="201" r="200.737" stroke="#353945" stroke-width="0.526178"/>
<path d="M175.121 218.282C182.838 224.956 194.827 219.474 194.827 209.271L194.827 203.228L194.857 202.134C195.27 187.112 210.262 176.897 224.393 182.009L190.37 165.68C188.762 164.909 187.017 164.463 185.235 164.368C177.498 163.958 171 170.121 171 177.869L171 209.271C171 212.73 172.504 216.019 175.121 218.282Z" fill="url(#paint0_linear_1_13070)"/>
<path d="M226.879 183.718C219.162 177.044 207.173 182.526 207.173 192.729L207.173 198.772L207.143 199.866C206.73 214.888 191.738 225.103 177.607 219.991L211.63 236.32C213.238 237.091 214.983 237.537 216.765 237.632C224.502 238.042 231 231.879 231 224.131L231 192.729C231 189.27 229.496 185.981 226.879 183.718Z" fill="url(#paint1_linear_1_13070)"/>
<defs>
<linearGradient id="paint0_linear_1_13070" x1="183.656" y1="163.614" x2="183.656" y2="219.06" gradientUnits="userSpaceOnUse">
<stop stop-color="#52EDD1"/>
<stop offset="1" stop-color="#0D7685"/>
</linearGradient>
<linearGradient id="paint1_linear_1_13070" x1="218.344" y1="238.386" x2="218.344" y2="182.94" gradientUnits="userSpaceOnUse">
<stop stop-color="#52EDD1"/>
<stop offset="1" stop-color="#0D7685"/>
</linearGradient>
</defs>
</svg>
