<svg width="28" height="34" viewBox="0 0 28 34" fill="none" xmlns="http://www.w3.org/2000/svg">
<path d="M1.89871 24.8515C5.45472 27.9268 10.9791 25.4007 10.9791 20.6993V17.9147L10.9929 17.4106C11.1831 10.4889 18.0912 5.78204 24.6026 8.13764L8.92522 0.613527C8.18422 0.257887 7.38022 0.0523972 6.55942 0.00890718C2.99429 -0.179993 1.00136e-05 2.65983 1.00136e-05 6.22994L0 20.6993C0 22.2934 0.69295 23.8088 1.89871 24.8515Z" fill="url(#paint0_linear_1_13271)"/>
<path d="M25.748 8.92489C22.192 5.84959 16.6677 8.37569 16.6677 13.0771V15.8617L16.6538 16.3658C16.4636 23.2875 9.55554 27.9944 3.04419 25.6388L18.7215 33.1629C19.4625 33.5186 20.2665 33.724 21.0873 33.7675C24.6524 33.9564 27.6467 31.1166 27.6467 27.5465V13.0771C27.6467 11.483 26.9538 9.96759 25.748 8.92489Z" fill="url(#paint1_linear_1_13271)"/>
<defs>
<linearGradient id="paint0_linear_1_13271" x1="5.83172" y1="-0.338653" x2="5.83172" y2="25.2099" gradientUnits="userSpaceOnUse">
<stop stop-color="#52EDD1"/>
<stop offset="1" stop-color="#0D7685"/>
</linearGradient>
<linearGradient id="paint1_linear_1_13271" x1="21.815" y1="34.1151" x2="21.815" y2="8.56649" gradientUnits="userSpaceOnUse">
<stop stop-color="#52EDD1"/>
<stop offset="1" stop-color="#0D7685"/>
</linearGradient>
</defs>
</svg>
